<svg width="320" height="200" viewBox="0 0 320 200" fill="none" xmlns="http://www.w3.org/2000/svg" role="img" aria-label="Estate document and seal illustration">
  <rect width="320" height="200" fill="#F7F8FA"></rect>
  <g stroke="#1A2734" stroke-width="1.4" stroke-linejoin="round" stroke-linecap="round" fill="none">
    
    <path d="M120 40 H214 L236 62 V168 H120 Z"></path>
    <path d="M214 40 V62 H236"></path>
    
    <path d="M84 56 H170 L190 76 V176 H84 Z"></path>
    <path d="M170 56 V76 H190"></path>
    
    <path d="M100 96 H172 M100 108 H172 M100 120 H160 M100 132 H172 M100 144 H148"></path>
  </g>
  
  <circle cx="158" cy="156" r="17" fill="#F7F2E6" stroke="#B89B5E" stroke-width="1.4"></circle>
  <path d="M158 147 L160.4 153 L166.5 153 L161.6 156.8 L163.6 162.6 L158 159 L152.4 162.6 L154.4 156.8 L149.5 153 L155.6 153 Z" fill="none" stroke="#9C8049" stroke-width="1.2" stroke-linejoin="round"></path>
</svg>