<svg width="320" height="200" viewBox="0 0 320 200" fill="none" xmlns="http://www.w3.org/2000/svg" role="img" aria-label="Country house illustration">
  <rect width="320" height="200" fill="#F7F2E6"></rect>
  <g stroke="#1A2734" stroke-width="1.4" stroke-linejoin="round" stroke-linecap="round" fill="none">
    
    <path d="M28 158 H292"></path>
    
    <path d="M96 158 V96 H224 V158"></path>
    
    <path d="M86 96 L160 56 L234 96"></path>
    
    <path d="M132 73 V60 H142 V67"></path>
    <path d="M186 67 V57 H196 V73"></path>
    
    <path d="M150 158 V124 H170 V158"></path>
    <path d="M150 124 q10 -9 20 0"></path>
    
    <rect x="112" y="104" width="18" height="22"></rect>
    <rect x="190" y="104" width="18" height="22"></rect>
    
    <rect x="112" y="132" width="18" height="22"></rect>
    <rect x="190" y="132" width="18" height="22"></rect>
    
    <path d="M96 158 V120 H64 V158"></path>
    <path d="M224 158 V120 H256 V158"></path>
    <rect x="74" y="128" width="12" height="16"></rect>
    <rect x="234" y="128" width="12" height="16"></rect>
    
    <circle cx="46" cy="138" r="13"></circle>
    <path d="M46 151 V160"></path>
    <circle cx="274" cy="138" r="13"></circle>
    <path d="M274 151 V160"></path>
  </g>
  
  <path d="M28 158 H292" stroke="#B89B5E" stroke-width="1.4" stroke-dasharray="2 5" opacity="0.7"></path>
</svg>